<svg width="100" height="100" viewBox="0 0 100 100" fill="none" xmlns="http://www.w3.org/2000/svg">
<path d="M49.0654 75.9014C55.471 79.5275 61.8985 82.2213 68.0098 84.1182C62.5484 87.224 56.2319 89 49.5 89C42.7434 89 36.4048 87.212 30.9297 84.085C36.9148 82.1238 43.1205 79.3712 49.0654 75.9014ZM13.3467 41.5117C18.5569 49.8584 24.5466 56.8736 30.9209 62.7139C25.3064 65.1479 19.8937 66.6806 15.4795 67.29C13.2482 62.4906 12 57.1414 12 51.5C12 48.041 12.47 44.692 13.3467 41.5117ZM82.7676 34.1826C85.4698 39.3632 87 45.2526 87 51.5C87 57.1227 85.7595 62.455 83.542 67.2422C78.5181 66.5001 72.736 64.946 66.7041 62.3652C74.1606 54.8069 80.26 45.3724 82.7676 34.1826ZM49.5 14C55.2536 14 60.7037 15.2976 65.5762 17.6133C64.5797 19.1683 64 21.016 64 23C64 28.2259 62.6816 33.1601 60.3164 37.7422C57.3393 35.3984 53.583 34 49.5 34C44.3945 34 39.7996 36.1864 36.6006 39.6738C32.5595 34.7504 28.8523 29.0646 25.6885 22.5283C32.1645 17.1995 40.4587 14 49.5 14Z" fill="url(#paint0_linear_5_29)"/>
<path d="M74 23C74 56 35 76 14 77.5M16.5 26.5C33.5 62 65 75.5 85 77.5" stroke="url(#paint1_linear_5_29)" stroke-width="10" stroke-linecap="round"/>
<defs>
<linearGradient id="paint0_linear_5_29" x1="49.5" y1="14" x2="49.5" y2="89" gradientUnits="userSpaceOnUse">
<stop stop-color="#FF5900"/>
<stop offset="1" stop-color="#FF8341"/>
</linearGradient>
<linearGradient id="paint1_linear_5_29" x1="49.5" y1="23" x2="49.5" y2="77.5" gradientUnits="userSpaceOnUse">
<stop stop-color="#FF5900"/>
<stop offset="1" stop-color="#FF8341"/>
</linearGradient>
</defs>
</svg>
